<svg width="282" height="87" viewBox="0 0 282 87" fill="none" xmlns="http://www.w3.org/2000/svg">
<rect width="281.037" height="86.2" rx="10" fill="#72B3F1"/>
<path d="M68 8L48 36L28 8H8V78H28V33.555L48 61.335L68 32.72V78H88V8H68Z" fill="white"/>
<path d="M142.861 43.1V8H122.804V43.1H104L132.832 78.2L162.918 43.1H142.861Z" fill="white"/>
<rect x="178.918" y="39.1805" width="7.59023" height="7.59023" fill="white"/>
<rect x="194.098" y="39.1805" width="63.758" height="7.59023" fill="white"/>
<rect x="194.098" y="23.5902" width="7.59023" height="7.59023" fill="white"/>
<rect x="209.279" y="23.5902" width="63.758" height="7.59023" fill="white"/>
<rect x="178.918" y="8" width="7.59023" height="7.59023" fill="white"/>
<rect x="194.098" y="8" width="63.758" height="7.59023" fill="white"/>
<rect x="194.098" y="54.7707" width="7.59023" height="7.59023" fill="white"/>
<rect x="209.279" y="54.7707" width="63.758" height="7.59023" fill="white"/>
<rect x="194.098" y="70.3609" width="7.59023" height="7.59023" fill="white"/>
<rect x="209.279" y="70.3609" width="63.758" height="7.59023" fill="white"/>
</svg>
